<svg width="16" height="17" viewBox="0 0 16 17" fill="none" xmlns="http://www.w3.org/2000/svg">
<path fill-rule="evenodd" clip-rule="evenodd" d="M11.1922 13.1202C10.0236 13.9954 8.57234 14.5138 7 14.5138C3.13401 14.5138 0 11.3798 0 7.51379C0 3.6478 3.13401 0.513794 7 0.513794C10.866 0.513794 14 3.6478 14 7.51379C14 9.08613 13.4816 10.5374 12.6064 11.706L15.7071 14.8067C16.0976 15.1972 16.0976 15.8304 15.7071 16.2209C15.3166 16.6114 14.6834 16.6114 14.2929 16.2209L11.1922 13.1202ZM12 7.51379C12 10.2752 9.76142 12.5138 7 12.5138C4.23858 12.5138 2 10.2752 2 7.51379C2 4.75237 4.23858 2.51379 7 2.51379C9.76142 2.51379 12 4.75237 12 7.51379Z" fill="white"/>
</svg>
